<?xml version="1.0" encoding="UTF-8" standalone="no"?>
<!-- Created with Inkscape (http://www.inkscape.org/) -->

<svg
   version="1.1"
   id="svg2"
   width="258.66666"
   height="258.66666"
   viewBox="0 0 258.66666 258.66666"
   sodipodi:docname="Google.eps"
   xmlns:inkscape="http://www.inkscape.org/namespaces/inkscape"
   xmlns:sodipodi="http://sodipodi.sourceforge.net/DTD/sodipodi-0.dtd"
   xmlns="http://www.w3.org/2000/svg"
   xmlns:svg="http://www.w3.org/2000/svg">
  <defs
     id="defs6" />
  <sodipodi:namedview
     id="namedview4"
     pagecolor="#ffffff"
     bordercolor="#000000"
     borderopacity="0.25"
     inkscape:showpageshadow="2"
     inkscape:pageopacity="0.0"
     inkscape:pagecheckerboard="0"
     inkscape:deskcolor="#d1d1d1" />
  <g
     id="g8"
     inkscape:groupmode="layer"
     inkscape:label="ink_ext_XXXXXX"
     transform="matrix(1.3333333,0,0,-1.3333333,0,258.66667)">
    <g
       id="g10"
       transform="scale(0.1)">
      <path
         d="M 2.59766,1933.23 H 1930.16 V 5.66797 H 2.59766 V 1933.23"
         style="fill:#ffffff;fill-opacity:1;fill-rule:evenodd;stroke:none"
         id="path12" />
      <path
         d="m 1798.4,1123.03 h 10.83 c 0.09,-0.14 0.12,-0.28 0.18,-0.41 1.76,-3.85 3.53,-7.7 5.16,-11.58 1.77,-4.36 3.34,-8.79 5.25,-13.09 0.08,-0.13 0.14,-0.27 0.18,-0.41 1.39,3.17 3.57,8.28 4.98,11.46 1.31,2.93 2.62,5.92 3.93,8.86 0.51,1.14 0.59,1.37 0.59,1.77 0,1 -1,1 -1.9,1 l -3.98,-0.18 3.98,2.58 h 14.53 l -1.04,-1 c -1.05,-0.95 -1.59,-1.62 -1.59,-3.48 0,-0.64 0.05,-1.26 0.14,-1.95 0.27,-2.86 0.5,-5.7 0.72,-8.56 0.32,-3.75 0.67,-7.51 1.37,-11.22 0.57,-3.03 1.22,-4.12 3.39,-5.75 -2.41,-0.45 -4.03,-0.68 -6.44,-0.68 -0.99,0 -2.7,0 -4.29,1.17 -1.86,1.46 -2.12,3.76 -2.44,7.88 -0.27,2.81 -0.55,5.61 -0.78,8.43 -0.18,2.67 -0.27,5.34 -0.53,8.01 l -0.05,0.54 -0.27,-0.59 c -1.59,-3.44 -3.04,-6.97 -4.58,-10.41 -3.57,-8.24 -3.83,-8.78 -4.56,-11 l 0.5,-1.36 c -1.31,-0.32 -6.48,-2.03 -8.39,-2.76 -1.45,4.04 -6.56,17.15 -10.62,26.12 -0.41,-3.81 -0.78,-7.61 -1.13,-11.41 -0.11,-1.26 -0.87,-9.73 -0.87,-10.5 0,-0.99 0.23,-1.26 2,-1.45 l 3.98,-0.58 -2.32,-1.41 h -8.42 l 1.19,1.41 c 0.23,0.31 0.44,0.58 0.58,0.98 0.27,0.73 0.41,2 0.59,3.81 0.32,2.77 0.69,5.48 1,8.24 0.18,1.72 1.03,10.13 1.26,12.08 0.05,0.46 0.09,0.96 0.09,1.41 0,1.17 -0.44,1.76 -1.81,1.76 -0.64,0 -3.53,-0.08 -4.2,-0.08 l 3.79,2.35"
         style="fill:#656263;fill-opacity:1;fill-rule:evenodd;stroke:none"
         id="path14" />
      <path
         d="m 1796.41,1123.03 -1.98,-4.62 -2.03,-0.91 c 0.12,0.46 0.49,2.13 0.49,2.31 0,1.04 -1.22,1.09 -2.49,1.09 l -6.3,-0.05 c -0.55,-17.65 -0.55,-19.19 -0.55,-21.58 0,-1.28 0,-2.31 0.09,-3.85 0.15,-1.96 0.78,-2.36 2.87,-2.49 l 3.83,-0.41 -2.93,-1.45 h -15.08 l 1,1.45 c 0.99,1.5 1.14,1.71 1.14,2.72 0.03,0.99 0,5.65 0,6.69 0,1.91 0,3.85 0.03,5.75 0.14,3.89 0.38,7.79 0.38,11.64 0,0.63 -0.06,1.36 -0.06,1.53 h -5.51 c -2.77,-0.09 -2.82,-0.17 -4.3,-2.44 l -2.4,-0.91 2.4,5.53 h 31.4"
         style="fill:#656263;fill-opacity:1;fill-rule:evenodd;stroke:none"
         id="path16" />
      <path
         d="m 1737.82,864.672 c -6.37,-3.473 -12.75,-7.531 -19.12,-10.43 -19.13,-8.687 -38.82,-11.008 -56.2,-11.008 -18.54,0 -47.51,1.164 -77.05,22.594 -41.13,28.969 -59.09,78.793 -59.09,122.246 0,89.796 73,133.826 132.68,133.826 20.84,0 42.28,-5.21 59.66,-16.22 28.96,-19.12 36.49,-44.03 40.54,-57.36 l -136.14,-55.031 -44.6,-3.488 c 14.48,-73.571 64.3,-116.438 119.34,-116.438 29.54,0 50.99,10.422 70.69,20.274 z m -54.46,172.638 c 11,4.06 16.8,7.53 16.8,15.65 0,23.17 -26.07,49.83 -57.36,49.83 -23.18,0 -66.62,-17.97 -66.62,-80.54 0,-9.85 1.15,-20.27 1.73,-30.703 l 105.45,45.763"
         style="fill:#ee2c31;fill-opacity:1;fill-rule:evenodd;stroke:none"
         id="path18" />
      <path
         d="m 1512.44,851.93 h -102.55 c 13.33,17.371 15.66,19.117 15.66,30.695 v 94.441 c 0,45.184 0.58,109.494 2.31,169.744 0.58,29.55 2.9,66.63 3.48,93.28 h -45.19 l 43.46,20.86 h 82.83 c -17.95,-10.44 -23.74,-13.91 -26.06,-34.2 -4.63,-44.59 -5.22,-115.27 -5.22,-197.54 V 895.375 c 0,-22.598 4.05,-26.074 23.18,-27.812 9.85,-1.161 19.7,-1.735 29.55,-2.891 l -21.45,-12.742"
         style="fill:#3db94d;fill-opacity:1;fill-rule:evenodd;stroke:none"
         id="path20" />
      <path
         d="m 1322.43,1093.51 c 13.31,-11.01 41.12,-34.18 41.12,-78.21 0,-42.87 -24.33,-63.144 -48.66,-82.269 -7.52,-7.527 -16.22,-15.648 -16.22,-28.386 0,-12.747 8.7,-19.696 15.06,-24.907 l 20.86,-16.222 c 25.5,-21.434 48.66,-41.141 48.66,-81.118 0,-54.457 -52.72,-109.496 -152.37,-109.496 -84,0 -124.56,39.981 -124.56,82.852 0,20.863 10.43,50.406 44.63,70.691 35.91,22.008 84.58,24.903 110.64,26.637 -8.11,10.434 -17.38,21.438 -17.38,39.391 0,9.859 2.9,15.648 5.8,22.597 -6.38,-0.578 -12.75,-1.16 -18.55,-1.16 -61.4,0 -96.16,45.778 -96.16,90.96 0,26.65 12.16,56.2 37.08,77.63 33.02,27.23 72.41,31.86 103.69,31.86 h 119.34 l -37.07,-20.85 z m -41.14,-257.225 c -4.64,0.582 -7.54,0.582 -13.32,0.582 -5.21,0 -36.51,-1.16 -60.84,-9.273 -12.74,-4.637 -49.82,-18.531 -49.82,-59.676 0,-41.125 39.97,-70.664 101.96,-70.664 55.62,0 85.17,26.641 85.17,62.551 0,29.558 -19.11,45.191 -63.15,76.48 z m 16.82,110.07 c 13.3,13.333 14.47,31.872 14.47,42.297 0,41.718 -24.91,106.598 -73,106.598 -15.06,0 -31.28,-7.53 -40.56,-19.12 -9.85,-12.17 -12.75,-27.81 -12.75,-42.87 0,-38.811 22.6,-103.127 72.42,-103.127 14.48,0 30.13,6.957 39.42,16.222"
         style="fill:#1673c3;fill-opacity:1;fill-rule:evenodd;stroke:none"
         id="path22" />
      <path
         d="m 963.23,844.398 c -92.117,0 -141.359,71.832 -141.359,136.715 0,75.897 61.992,140.787 150.043,140.787 85.166,0 138.476,-66.63 138.476,-136.728 0,-68.363 -52.73,-140.774 -147.16,-140.774 z m 72.42,46.915 c 13.9,18.546 17.38,41.718 17.38,64.316 0,50.981 -24.34,148.311 -96.182,148.311 -19.11,0 -38.227,-7.53 -52.133,-19.7 -22.586,-20.28 -26.649,-45.77 -26.649,-70.68 0,-57.357 28.387,-151.787 98.477,-151.787 22.594,0 45.777,11.004 59.107,29.54"
         style="fill:#fddf12;fill-opacity:1;fill-rule:evenodd;stroke:none"
         id="path24" />
      <path
         d="m 655.02,844.398 c -92.122,0 -141.368,71.832 -141.368,136.715 0,75.897 61.993,140.787 150.055,140.787 85.16,0 138.457,-66.63 138.457,-136.728 0,-68.363 -52.711,-140.774 -147.144,-140.774 z m 72.41,46.915 c 13.91,18.546 17.379,41.718 17.379,64.316 0,50.981 -24.329,148.311 -96.161,148.311 -19.121,0 -38.246,-7.53 -52.152,-19.7 -22.59,-20.28 -26.644,-45.77 -26.644,-70.68 0,-57.357 28.39,-151.787 98.492,-151.787 22.594,0 45.765,11.004 59.086,29.54"
         style="fill:#ee2c31;fill-opacity:1;fill-rule:evenodd;stroke:none"
         id="path26" />
      <path
         d="m 476.82,864.609 -77.664,-17.91 c -31.508,-4.898 -59.75,-9.238 -89.621,-9.238 -149.91,0 -206.937,110.254 -206.937,196.619 0,105.37 80.929,203.13 219.429,203.13 29.332,0 57.578,-4.35 83.098,-11.41 40.734,-11.41 59.75,-25.52 71.695,-33.68 l -45.078,-42.9 -19.004,-4.34 13.578,21.73 c -18.472,17.91 -52.156,51.04 -116.23,51.04 -85.828,0 -150.461,-65.18 -150.461,-160.23 0,-102.1 73.875,-198.24 192.27,-198.24 34.773,0 52.683,7.062 68.98,13.582 v 87.445 l -82.012,-4.348 43.45,23.356 h 115.148 l -14.113,-13.578 c -3.809,-3.254 -4.356,-4.344 -5.446,-8.688 -0.539,-4.894 -1.082,-20.644 -1.082,-26.07 v -66.27"
         style="fill:#1673c3;fill-opacity:1;fill-rule:evenodd;stroke:none"
         id="path28" />
    </g>
  </g>
</svg>
